<mxfile host="app.diagrams.net" agent="Mozilla/5.0 (Windows NT 10.0; Win64; x64) AppleWebKit/537.36 (KHTML, like Gecko) Chrome/129.0.0.0 Safari/537.36" version="24.8.2">
  <diagram name="第 1 页" id="wFF2XXmMmSTznZaTJhoP">
    <mxGraphModel dx="1674" dy="738" grid="1" gridSize="10" guides="1" tooltips="1" connect="1" arrows="1" fold="1" page="1" pageScale="1" pageWidth="827" pageHeight="1169" math="0" shadow="0">
      <root>
        <mxCell id="0" />
        <mxCell id="1" parent="0" />
        <mxCell id="z5qM3DSmOJjKIzn43adz-16" style="edgeStyle=orthogonalEdgeStyle;rounded=0;orthogonalLoop=1;jettySize=auto;html=1;entryX=0.5;entryY=0;entryDx=0;entryDy=0;fillColor=#00FFFF;strokeColor=none;" edge="1" parent="1" source="z5qM3DSmOJjKIzn43adz-2" target="z5qM3DSmOJjKIzn43adz-3">
          <mxGeometry relative="1" as="geometry" />
        </mxCell>
        <mxCell id="z5qM3DSmOJjKIzn43adz-36" value="" style="edgeStyle=orthogonalEdgeStyle;rounded=0;orthogonalLoop=1;jettySize=auto;html=1;strokeColor=#FF8000;" edge="1" parent="1" source="z5qM3DSmOJjKIzn43adz-2" target="z5qM3DSmOJjKIzn43adz-8">
          <mxGeometry relative="1" as="geometry" />
        </mxCell>
        <mxCell id="z5qM3DSmOJjKIzn43adz-2" value="gateway" style="rhombus;whiteSpace=wrap;html=1;" vertex="1" parent="1">
          <mxGeometry x="482.5" y="130" width="75" height="54.69" as="geometry" />
        </mxCell>
        <mxCell id="z5qM3DSmOJjKIzn43adz-17" style="edgeStyle=orthogonalEdgeStyle;rounded=0;orthogonalLoop=1;jettySize=auto;html=1;entryX=0.5;entryY=0;entryDx=0;entryDy=0;fillColor=#00FFFF;strokeColor=#3399FF;" edge="1" parent="1" source="z5qM3DSmOJjKIzn43adz-3" target="z5qM3DSmOJjKIzn43adz-4">
          <mxGeometry relative="1" as="geometry" />
        </mxCell>
        <mxCell id="z5qM3DSmOJjKIzn43adz-3" value="Distributor&lt;div&gt;接收日志&lt;/div&gt;" style="rounded=1;whiteSpace=wrap;html=1;" vertex="1" parent="1">
          <mxGeometry x="80" y="220" width="160" height="40" as="geometry" />
        </mxCell>
        <mxCell id="z5qM3DSmOJjKIzn43adz-4" value="Ingester&lt;div&gt;处理日志（压缩,临时存储）&lt;/div&gt;" style="rounded=1;whiteSpace=wrap;html=1;" vertex="1" parent="1">
          <mxGeometry x="80" y="300" width="160" height="40" as="geometry" />
        </mxCell>
        <mxCell id="z5qM3DSmOJjKIzn43adz-5" value="Index" style="shape=cylinder3;whiteSpace=wrap;html=1;boundedLbl=1;backgroundOutline=1;size=15;" vertex="1" parent="1">
          <mxGeometry x="115" y="400" width="90" height="80" as="geometry" />
        </mxCell>
        <mxCell id="z5qM3DSmOJjKIzn43adz-6" value="Chunks" style="shape=cylinder3;whiteSpace=wrap;html=1;boundedLbl=1;backgroundOutline=1;size=15;" vertex="1" parent="1">
          <mxGeometry x="310" y="450" width="90" height="80" as="geometry" />
        </mxCell>
        <mxCell id="z5qM3DSmOJjKIzn43adz-23" style="edgeStyle=orthogonalEdgeStyle;rounded=0;orthogonalLoop=1;jettySize=auto;html=1;entryX=0.5;entryY=0;entryDx=0;entryDy=0;strokeColor=#FF8000;" edge="1" parent="1" source="z5qM3DSmOJjKIzn43adz-7" target="z5qM3DSmOJjKIzn43adz-8">
          <mxGeometry relative="1" as="geometry" />
        </mxCell>
        <mxCell id="z5qM3DSmOJjKIzn43adz-7" value="Query frontend" style="rounded=1;whiteSpace=wrap;html=1;" vertex="1" parent="1">
          <mxGeometry x="440" y="220" width="160" height="40" as="geometry" />
        </mxCell>
        <mxCell id="z5qM3DSmOJjKIzn43adz-8" value="Querier&lt;div&gt;日志查询&lt;/div&gt;" style="rounded=1;whiteSpace=wrap;html=1;" vertex="1" parent="1">
          <mxGeometry x="440" y="300" width="160" height="40" as="geometry" />
        </mxCell>
        <mxCell id="z5qM3DSmOJjKIzn43adz-11" style="edgeStyle=orthogonalEdgeStyle;rounded=0;orthogonalLoop=1;jettySize=auto;html=1;entryX=0.5;entryY=0;entryDx=0;entryDy=0;entryPerimeter=0;fontStyle=1;strokeColor=#3399FF;fillColor=#00FFFF;" edge="1" parent="1" source="z5qM3DSmOJjKIzn43adz-4" target="z5qM3DSmOJjKIzn43adz-5">
          <mxGeometry relative="1" as="geometry" />
        </mxCell>
        <mxCell id="z5qM3DSmOJjKIzn43adz-21" value="" style="edgeStyle=orthogonalEdgeStyle;rounded=0;orthogonalLoop=1;jettySize=auto;html=1;" edge="1" parent="1" source="z5qM3DSmOJjKIzn43adz-19" target="z5qM3DSmOJjKIzn43adz-6">
          <mxGeometry relative="1" as="geometry" />
        </mxCell>
        <mxCell id="z5qM3DSmOJjKIzn43adz-19" value="Chunk memcache" style="rounded=0;whiteSpace=wrap;html=1;" vertex="1" parent="1">
          <mxGeometry x="310" y="400" width="90" height="30" as="geometry" />
        </mxCell>
        <mxCell id="z5qM3DSmOJjKIzn43adz-20" value="" style="endArrow=classic;html=1;rounded=0;exitX=0.999;exitY=0.896;exitDx=0;exitDy=0;exitPerimeter=0;entryX=0;entryY=0.5;entryDx=0;entryDy=0;strokeColor=#3399FF;" edge="1" parent="1" source="z5qM3DSmOJjKIzn43adz-4" target="z5qM3DSmOJjKIzn43adz-19">
          <mxGeometry width="50" height="50" relative="1" as="geometry">
            <mxPoint x="430" y="370" as="sourcePoint" />
            <mxPoint x="480" y="320" as="targetPoint" />
          </mxGeometry>
        </mxCell>
        <mxCell id="z5qM3DSmOJjKIzn43adz-26" value="" style="endArrow=classic;html=1;rounded=0;entryX=1;entryY=0.5;entryDx=0;entryDy=0;strokeColor=#FF8000;" edge="1" parent="1" target="z5qM3DSmOJjKIzn43adz-19">
          <mxGeometry width="50" height="50" relative="1" as="geometry">
            <mxPoint x="440" y="340" as="sourcePoint" />
            <mxPoint x="400" y="410" as="targetPoint" />
          </mxGeometry>
        </mxCell>
        <mxCell id="z5qM3DSmOJjKIzn43adz-27" value="" style="endArrow=classic;html=1;rounded=0;strokeColor=#FF8000;" edge="1" parent="1" target="z5qM3DSmOJjKIzn43adz-5">
          <mxGeometry width="50" height="50" relative="1" as="geometry">
            <mxPoint x="440" y="340" as="sourcePoint" />
            <mxPoint x="480" y="320" as="targetPoint" />
          </mxGeometry>
        </mxCell>
        <mxCell id="z5qM3DSmOJjKIzn43adz-28" value="" style="shape=image;verticalLabelPosition=bottom;verticalAlign=top;imageAspect=0;aspect=fixed;image=data:image/jpeg,/9j/4AAQSkZJRgABAQEAkACQAAD/4QBaRXhpZgAATU0AKgAAAAgABQMBAAUAAAABAAAASgMDAAEAAAABAAAAAFEQAAEAAAABAQAAAFERAAQAAAABAAAWJVESAAQAAAABAAAWJQAAAAAAAYagAACxj//bAEMACAYGBwYFCAcHBwkJCAoMFA0MCwsMGRITDxQdGh8eHRocHCAkLicgIiwjHBwoNyksMDE0NDQfJzk9ODI8LjM0Mv/bAEMBCQkJDAsMGA0NGDIhHCEyMjIyMjIyMjIyMjIyMjIyMjIyMjIyMjIyMjIyMjIyMjIyMjIyMjIyMjIyMjIyMjIyMv/AABEIARIBFAMBIgACEQEDEQH/xAAfAAABBQEBAQEBAQAAAAAAAAAAAQIDBAUGBwgJCgv/xAC1EAACAQMDAgQDBQUEBAAAAX0BAgMABBEFEiExQQYTUWEHInEUMoGRoQgjQrHBFVLR8CQzYnKCCQoWFxgZGiUmJygpKjQ1Njc4OTpDREVGR0hJSlNUVVZXWFlaY2RlZmdoaWpzdHV2d3h5eoOEhYaHiImKkpOUlZaXmJmaoqOkpaanqKmqsrO0tba3uLm6wsPExcbHyMnK0tPU1dbX2Nna4eLj5OXm5+jp6vHy8/T19vf4+fr/xAAfAQADAQEBAQEBAQEBAAAAAAAAAQIDBAUGBwgJCgv/xAC1EQACAQIEBAMEBwUEBAABAncAAQIDEQQFITEGEkFRB2FxEyIygQgUQpGhscEJIzNS8BVictEKFiQ04SXxFxgZGiYnKCkqNTY3ODk6Q0RFRkdISUpTVFVWV1hZWmNkZWZnaGlqc3R1dnd4eXqCg4SFhoeIiYqSk5SVlpeYmZqio6Slpqeoqaqys7S1tre4ubrCw8TFxsfIycrS09TV1tfY2dri4+Tl5ufo6ery8/T19vf4+fr/2gAMAwEAAhEDEQA/APf6KKKACiiigAooooAKKKKACiiigAooooAKKKKACiiigAoopgljZyiupYdVB5FAWH0UUUAFFFFABRRRQAUUUUAFFFFABRRRQAUUUUAFFFFABRRRQAUUUUAFFFFABRRRQAUUUUAFFFFABRRRQAUUUUAFHQZorkPGfiT+z4TY2r/6RIPmI/hFZ1akaceaRth6E69RU4FfxR4yFtvs9OYGXo8nZfp71wcOp3lvd/ao7iQTE5LZ61VJLEknJPU0leBWxE6kuZs+xw2CpUKfIlfueqeGPF0WrAW11iO6A4PZ/p711VeCRyPFIskbFXU5BHavVfCPiIaxZ+TOw+1RDDf7Q9a9LB4vn9ye54WZ5d7L97S+Hr5HTUUUV6J4oUUUUAFFFFABRRRQAUUUUAFFFFABRRRQAUUUUAFFFFABRRRQAUUUUAFFFFABRRRQAUUUUAFFFQXF3b2qF55kjUd2OKTaW40m3ZDNRvEsLCa5kOFjXNeKX95Jf3stzKxLO2a7Lxj4ns7+xFlZSl8tl2A4xXCV4uPrqclGL0R9TlGFdKm6k1ZsKKKK889kKv6PqMml6pDdIcbW+Yeo71QoqoycXdETgpxcZbM96gmS4gjmQ5V1DA1JXkWn+MdV0+3SBHR4kGFDDtW/ZfEZSQt5aY9WjOf0r3KePpSWuh8pWyjEQbcVdHfUVjWPijSdQwI7pVc/wvwav3WoWlnAZridEjHcmupVINXTPOlRqRlyuLuWqK4q/wDiHaQsUs4Gmx/ETgViTfEHVHP7uKGMfQmueeNox6nbTyrEzV+W3qeoUVw3hfxhc6jqf2S+2fOPkKjHNdzW1KrGrHmicuIw08PPkmFFFFamAUUUUAFFFFABRRRQAUUUUAFFFFABRVe+ufsdjNcld3lqWx615hqPjjVLwssLC3jPZOv51z18TCj8R2YTA1cVfk2R6lLcwQjMkqL9WFUJfEWkw5330XHo1eOTXdzcNumnkcn+8xqCuCWZP7MT14ZFG3vzPZf+Eq0X/n+j/OrUOtadccR3kLf8CFeIUoYg5BI+lJZlPqi5ZFS6SZ72rq4yrAj2NQXl9bWEJluZVjQdya8as9b1GxYGC7kXHYnIpuo6te6rL5l3Mz46DsK0eZLl0WphHI58+svdOs1nx/I5aLTU2r081up+grjru/ur6QvczvIx/vGq1FedVr1Kj95ntUMJRoK0EFFFFYnUFFFFABRRRQAUUUUAKCQcg4qSS5nmRUlmd1XoGbIFRUU7sVk3cKKKKQyxY3DWl9BOpwUcGvcoJBLbxyD+JQa8Fr27QyW0SzJOSYl/lXq5bJ3lE+fz2CtCZoUUUV6x84FFFFABRRRQAUUUUAFFFFABRRRQBn67/wAgO8/65GvEj1Ne46rH52lXUf8AejYfpXhzDDsPQ15GZL3os+kyJ+5NCUUUV5Z74UUUUAFFFFABRRRQAU5EZ2CopZj0AFdNoXgu81TbPc5t7Y8jI+ZvoK9C0zw/p2kxhbeBd3d25Y/jXbRwVSpq9EeVis1o0Xyx95nmVl4R1i+wVtjGp/ikOK3Lb4cTsM3N4qn0QZr0WivQhgKUd9Tx6mcYifw6HHR/DvTVQB552bucgU//AIV7pf8Az1n/ADFddRW31Wj/ACnL/aGJ/nZx0nw705l+S4nU+vBrLufhzOuTbXit6BxivRaKmWDoy6FwzPFR+1c8cvvCmr2GS9sXUfxR/NWKysrFWBBHUEV77jPWsvUvD2m6ohFxbruPR1GGH41yVMtW8GejQzx7VY/ceK0V12teBbyxDTWRNzCOdv8AGP8AGuSZWVirAhgcEEdK86pSnTdpI9yhiKVePNTdwGM817Zoc0E+j2xt3DRiMDP0rxKt7wz4il0S8Adi1q5/eJ6e4rfBV1Sn72zOPNMJLEUvc3R7BRUcM0dxCksbBkcZBHepK99O58g007MKKKKBBRRRQAUUUUAFFFFABRRRQAjKGRlPQjFeHarbm11W5hIxtkIr3KvL/H+nm31hbpV+SdeT7ivPzGF6al2PZyWry1nB9TkaKKK8Q+qCiiigAoooAycCgB8UTzSrHGpZ2OAAOTXpHhnwXFZhLvUFElx1VOoX/wCvR4M8MrZwrqN2n+kOMxqf4B/jXZ17GDwaS557nzOZZk5N0qT06sQAAYAwKWiivTPCCiiigAooooAKKKKACiiigArnfEHhO01hGljAhuscOBwfrXRUVE6cZq0kaUq06UuaDszw3UdMutLuWguoirDoccH6VTr27VtIttXs2guEGT91u6mvItY0i40e+a3mU4z8rY4YV4eKwrou62PrMBmMcSuWWkjqvAevlH/sq4f5TzCT29q9DrwSGV4JkljYq6HKkdjXs+gaqmr6TFcjh8bXHoRXdgK/NH2ct0eVnGE9nP20dnv6mpRRRXoniBRRRQAUUUUAFFFFABRRRQAVg+LdK/tTRZFRcyxfOlb1BGRg1E4KcXF9TSlUdKanHdHghUg4PUUmK6XxjpkOna0fJICzLvKj+E5rncV8zVi6c3F9D7ihWjVpqa6jMUYp+KMVFzW4zFdP4M0L+0tR+0zLm3gOTnozdhXOxxtLIsaDLMcAV7HoGmLpWkw24Hz4y59W7124Gj7Wpd7I8vNMV7Glyx3ZpgADA6Cloor3z5IKKKKACikZgoJYgAdSa5fWPGtlYExWw+0Sjrg8Cs6lWFNXm7GtGhUrS5aaudTUMl1bw/6yZF+rV5Tf+LNVvmP78xJ/dj4rHkuJpTmSV2Pu1efPM4r4UevSySbV5yse1LqNkxwt1ET/ALwo/tKy37PtUW703V4kGYdGP50bmzncc/Ws/wC1H/Kbf2HH+c91V1cZVgw9jTq8UtdX1CyYGC6kXHbPFdRpnj+eMql/EJF/vrwa3p5jTlpLQ5K2T1oawdz0OiqWn6rZ6nEJLWZX45XuKu16EZKSujypRlF2krMKydf0SHWtPaJgBKBmN/Q1rUUpxU48rHTqSpyUo7o8JurWW0uZIJlKyIcEGus+H+pGDUZLF2+SYbl/3hWp460LzoRqUCfPGMSADqPWuG0+5ay1CC5XrG4NeC08LXR9WqkcdhH3/U9vopkUiywpIpyrAEU+voE7nyLVgooooAKKKKACiiigAooooAKO1FVr+cWthPOf4EJpN2VxxTbsjyvxPdm+1+4kByqHYv0FY+2pXYySM56scmm4r5OpPnm5M+5oxVOmoLoM20bafijFRc0ubvg/Tvtuuxsy5SEbz9e1eq1x/gGy8rT5roj5pWwD7Cuwr6LL6fJRT7nyWaVvaYhrotAoooruPOCo5po7eFpZWCooySakrzzxlrrXE50+3fESf6wg/ePpWGIrqjDmZ04TDSxFTkRW8R+K5tRdre0Yx2w4JHV65bbT8UYr5urWlVlzSPr6FGFCHLBDNtG2tTTdB1DVDm2gJTPLtwBXRW/w+nYZuLxU9kXNXTw1WorxiZ1cdQpO05anE7aNtd4/w8Xb8l+c+6Vm3fgbU4AWhaOcDsDg/rVywVeKu4mcMyw03ZSOV20basXFrPayGOeJo3HZhiosVyu6dmdqkmroltLu4sZ1mtpWjceh616N4d8WQ6mFt7oiK56D0f6V5pilQtG4dGKsDkEdq6MPip0XpscmLwdPEx137nuNFcx4V8RjUoBa3DAXKDj/AGx6109fR0qsaseaJ8lWozozcJ7jJYlmiaNwGVhgg145rWmtpeqzWxztVsofUdq9mrivH2nhoIL5R8ynYxHoelceY0uelzLdHflWI9nW5HtI3PC9z9q8P2rE5ZV2n8K2a5XwG5bRZEP8MpxXVV04aXNSi/I48XHkryXmFFFFbnOFFFFABRRRQAUUUUAFYniyUxeHbnHVgF/M1Y1bW7TSYd0rZkP3UHU157rHiC81clZDsgByIxXn43F06cHC+rPRwGDqVJqdvdRiYoxUmKMe1fOcx9VcjxS4p+PalVcsB6nFCYN2R6p4Yg8jw/aL3Kbj+Na9VrBPKsIE/uoBVmvr6UeWml5HxFaXNUlLzCiiitDMy9f1H+zdJlmBw5G1PrXkrlpJGdzlmOSa7Xx5dEy29qDwBuIrjMe1fOZlWcq3L0R9PlVFQo8/VkeK7Dwz4T+1BL2+UiLqkf8Ae+tZ3hjSP7U1MeYv7mL5n9/avUFUIoVQAAMACtsuwiqfvJ7GWZ46VP8AdU3r1GxxRwxhI0CKOAAMU+iivdSsfOt3CiiigClqGlWmpwmO5iVvRu4rznX/AAzPpDmRMyWxPD9x9a9TqOeCO4heKVQyMMEGuTE4SFZeZ24TG1MPLuux4nijFbOv6O2kX7RgEwvzG3t6Vk4r5mpGVOTjLdH1dOqqkVOOzH2txLZ3Mc8LFZEOQa9a0bUo9V06O4T7xGHHoa8ixXTeDdTNpqf2V2xFPxz2au3L8T7OpyvZnn5nhlVpc63R6PWdrdmL7R7iDGSUJX6jpWjRX0U4qUXF9T5mEnCSkuhx/gLetndRsrDDg8iuwpqRpGCEULnk4GKdUUKXsqahe9jTEVfbVHO1rhRRRWpiRSTpG2GODjNFcn4q1Y2WqpEN3MIbj6migDsaKKKACsTX9ej0m32phrhx8q+nvV7VNQj02xe4c8gfKPU15deXU19dPPM2WY5+lebmGM9jHkj8TPSy/B+2lzz+FEVzcTXc7TTuXdjySahxT8GjBr5tybd2fSqyVkMxRin4NGDSuO4zFOjH71P94UuDSgEHNCeom9D2C2/49o/90VLVTS5RNpdtIP4owat19pTd4JnxU1aTQUUUVZJ5v4zJbXSD2QYrnsV0fjFT/brHHVBXP4r5HFv9/L1Pr8G/3EPQ9E8HWgg0VZcfNKxJroqy/D2P7Dtcf3K1K+nw0VGjFLsfL4mTlWk33CiiitzAKKKKACiiigDD8U6aL/SXYD95F8615lj2r2d1Dxsp6EYryTUIPs+oXEQHCuQK8HN6SUlUXU9/KKzcXTfQp4p8TtDKkicMhBFGDRg14ylZ3PZdmrHr1jcC6soZx0dAasVg+ELjztDRT1jYqa3q+yoT56cZd0fGV4clSUezCiiitTIKKKKAPK/iHcSp4lVVYgC3X+bUVreNLCW41uOREBHkKMn6tRQB31FFQXrSJYztEu6QISoHc0pOybGld2OD8V6mb3UDbo37qHj6nvXP4qWTcZGL53k859aZiviq9aVWo5yPr6FONKmoRG4oxTsUuKxua3GYoxT8UYouFxmKMU/FGKLjueg+Ebrz9GWMn5ojtrfrgvB96LfUWt3OFmHH1Fd7X12XVva4deWh8rj6Xs6789QoooruOM4vxtZtvhuwOPumuQxXq2qWK6hYSQMOSPlPoa8wuLd7ad4ZBhlOCK+ZzWg6dX2i2Z9HlldTpcj3R3fhC7E+kCEn5oiQR7V0NeZaFqh0u+DnmJ+HHt616TDNHPEskTBlYZBFepluJVWio9UeXmFB06rl0ZJRRRXpHAFFFFABRRRQAV5XrY/4nd3/AL9epscKTXlWpP5up3L5zmQ14ucytCKPXyj45MpYoxT8UYr56579zufBP/IKl/66n+Qrp65rwWCNKk95T/IV0tfYYH/d4eh8ljP48vUKKKK6zmCiiigCld2SXModgCQuKKu0UAFFFFAHMeIfDgud11aKBL1ZR/FXFvG0blHXDDqDXrdY+reH7fUgXUCObswHX614uPyz2j9pS37Hq4PMHTXJU2POsUYrRvtJutPciaM7ezDoao7a+dnCUHyyVme3GcZq8XcZijFP20bai5VxmKMU/bRtouFwhkaGZJUOGRgQa9N0u/TULGOdTyRhh6GvMttbPh/VTpt2EcnyJDhh6e9ellmM9hU5ZbM4Mfh/bQ5o7o9BopFYMoZTkEZBpa+tvc+cCue8Q6AL9ftFuAJ1HI/vV0NFY16EK0HCZpSqypS54nkksDwyFJFKsOoNaOl61daW+EbfEeqMeK7rUdGtNRX96mH7OvWuXu/CN3ExNuyyr2HQ187Vy/E4afPS19D3IY6hXjy1dDbtfFdhOo81jE3cN0qy3iHTFGftSn6VxTaFqKnBtXp0egajI+0WzD3NbRzHGpWcLv0ZjLBYW91O3zOhu/GNtG223iaX1J4FdBaXAurWOcArvXODXO6Z4SjiYSXjB2HIQdK6dVVFCqAFHAAr08H9Zledfr0ODE/V1aNL7xaKKK7zkKOr3QtNMnlzyFIH1rzE/MxJ6k5NdX4t1HzJFso24Xl/rXLYr5XNsQqlblWyPoctpOnS5n1GYoxT9tG2vKuejc0tF1mXS5wMlrdj8yf1FeiQzJcQrLGwZGGQRXlWK6zwjqJy1jI3+1H/AFFe1lONcZ+xk9HseTmOGUo+1jutzraKKK+lPDCiiigAooooAKKKKACiiigBkkaSqVdQynsRWJe+FrO4JaLMLn06VvUVjVw9KsrTVzSnWnTd4Oxw0/hO+jJ8opIv1wayLm0mtJjFOm1x2r1CsHxJpX2u2+0RD97GOfcV4uNymEabnR3XQ9PDZjNzUamxw+KMU/bRtr5y57FxmKMU/FGKLhc6Pw9r3k7bS6b5OiOe3tXXghgCDkHoa8txW5pPiCaxxFNmSD9Vr3cuzXkSpVtu55WMwPM+env2O3oqva3kF5EJIJAw/UVYr6SMoyV4u6PGaadmFFFFUIKKKKACiiigArO1jU49NtGYkGVuEX3o1TWINOjOTvlP3UFcLeXc19cNNM2WPQdhXk5jmUaEXCDvL8jvweDdV80tivK7TStJIcsxyTUe2pNtG2vk3Jt3Z9ArJWQzFGKfto20rjuMxVnT5zaX8Mw/hYZ+lRBGYgKCSegAre0vw1NcMst2DHH12/xH/CunC0atSovZowr1acIPnZ2YOVB9aWkVQqhR0AxS19ytj5YKKKKYBRRRQAUUUUAFFFFABRRRQAUhAIwehpaKAOL1/SDazG4hX9y55A/hNYmK9JuUjktpFlAKbTkGvO5AvmNs+7nivkM3wkaFRShtLoe9gMRKpDll0IsUYp+KMV49zuuMxRin4oxRcLjoJ5raTfDIyN6g1vWfimVAFuow4/vLwa5/FGK6aGMrUH+7kY1aFOr8SO7t9csLgDE4Vj2firyzRuMrIp+hrzbFOVnU5ViPoa9ann00vfjc4Z5bF/DI9JyPUUhdF6sB+NeeC7uQMCeT/vo0x5ppPvyO31NbPP420h+JmssfWR3NzrNjbA751JHZeTWDf+J5ZVKWieWD/GetYGKMVwYjOK9VWj7qOqlgKUNXqI7PI5d2LMepJpuKfijFeU5Nu7O5WQzFGKfipba1ku51iiGWP6U4pyfLHcTkkrsn0rTG1G6CciMcuw7V0aeFbFTlmlYehatHTrCPT7VYk5bqx9TVyvrsFldKnTXtVeR4WIxs5z9x2RUttNs7T/UQKp9epq3RRXqwhGCtFWOKUnJ3bCiiiqEFFFFABRRRQAUUUUAFFFFABRRRQAUUUUAUtWkMemTMP7uK4PFdtr2f7Kkx6iuMxXyWfSft4ryPZy5Wpt+YzFGKfijFeFc9C4zFGKfijFFwuMxRin4oxRcLjMUYp+KMUXC4zFGKfijFFwuMxRin4oxRcLjMUYp+KAOaYXFt7aW5lEcSlmNdppWlx6fD0zKfvNTtLsYbW1RkTDsoLE9av19hlmWRoJVJ6yf4HiYvFuo+WOwUUUV7JwhRRRQAUUUUAFFFFABRRRQAUUUUAFFFFABRRRQAUUUUAUdYTzNMmHoM1xWK9AmQSQuh7giuEljMcrIeqnFfKcQ02qkKnfQ9XL5+64kWKMU7FSRwSynEcbMfYV8/GMpOyVz0HJLchxSpG0jBUUlj0ArYtfD9xLzMREvp1Nb1nptvZL+7XLd2PWvWwmT16zvNcqOSrjYQ0jqzlpNGvY0DmEkYzx1qm0TIcOpU+4r0Go3gikHzxq31FenV4fg/4crepzRzCX2kcBijFdrJpFlJ1gUfTioW0CxP8Lj6NXDLIcQvhaZuswp9UchijFdVL4dtvKbyi4fHBJrm5oJIJWjkXDKea4MXgK2Fs6i0ZvSxEKvwkOKMU/FGK4bm9xmKkgiMs8aDqzAUmK1tBtTLeeaR8sY/WunCUnWrRgurMqtRQg5M6hF2xqvoMU6iiv0NKysfPBRRRTAKKKKACiiigAooooAKKKKACiiigAooooAKKKKACiiigAqpJptpLKZHhBY9at0VFSlCorTVxqTjsVU060Q5WBPyqwqIgwqgD2FOopRpU4fCkhuUnuwooorQkKKKKACiiigAqlf6bFfJ83yyDowq7RWdWlCrBwmroqMnF3Rxl3ptxaMd6kr2YdKqYrvSoYYIBHvVGfR7Sck7NpPdeK+ZxXD8r3oS+TPQp47pNHJxxNLIqICWY4ArsbC0WztViHXqx9TUVnpUFlIXUlmPQntV+u/KcseFTqVfif4GOKxPtdI7BRRRXtnGFFFFABRRRQAUUUUAFFFFABRRRQAUUUUAFFFFABRRRQAUUUUAFFFFABRRRQAUUUUAFFFFABRRRQAUUUUAFJRRQAtFFFABRRRQAUUUUAFFFFABRRRQAUUUUAFFFFAH/9k=" vertex="1" parent="1">
          <mxGeometry x="620" y="117.5" width="80.26" height="79.68" as="geometry" />
        </mxCell>
        <mxCell id="z5qM3DSmOJjKIzn43adz-30" value="" style="endArrow=classic;html=1;rounded=0;strokeColor=#FF8000;" edge="1" parent="1" source="z5qM3DSmOJjKIzn43adz-28" target="z5qM3DSmOJjKIzn43adz-2">
          <mxGeometry width="50" height="50" relative="1" as="geometry">
            <mxPoint x="430" y="260" as="sourcePoint" />
            <mxPoint x="480" y="210" as="targetPoint" />
          </mxGeometry>
        </mxCell>
        <mxCell id="z5qM3DSmOJjKIzn43adz-31" value="" style="shape=image;verticalLabelPosition=bottom;verticalAlign=top;imageAspect=0;aspect=fixed;image=data:image/jpeg,/9j/4AAQSkZJRgABAQEAkACQAAD/4QBaRXhpZgAATU0AKgAAAAgABQMBAAUAAAABAAAASgMDAAEAAAABAAAAAFEQAAEAAAABAQAAAFERAAQAAAABAAAWJVESAAQAAAABAAAWJQAAAAAAAYagAACxj//bAEMACAYGBwYFCAcHBwkJCAoMFA0MCwsMGRITDxQdGh8eHRocHCAkLicgIiwjHBwoNyksMDE0NDQfJzk9ODI8LjM0Mv/bAEMBCQkJDAsMGA0NGDIhHCEyMjIyMjIyMjIyMjIyMjIyMjIyMjIyMjIyMjIyMjIyMjIyMjIyMjIyMjIyMjIyMjIyMv/AABEIAG0AcAMBIgACEQEDEQH/xAAfAAABBQEBAQEBAQAAAAAAAAAAAQIDBAUGBwgJCgv/xAC1EAACAQMDAgQDBQUEBAAAAX0BAgMABBEFEiExQQYTUWEHInEUMoGRoQgjQrHBFVLR8CQzYnKCCQoWFxgZGiUmJygpKjQ1Njc4OTpDREVGR0hJSlNUVVZXWFlaY2RlZmdoaWpzdHV2d3h5eoOEhYaHiImKkpOUlZaXmJmaoqOkpaanqKmqsrO0tba3uLm6wsPExcbHyMnK0tPU1dbX2Nna4eLj5OXm5+jp6vHy8/T19vf4+fr/xAAfAQADAQEBAQEBAQEBAAAAAAAAAQIDBAUGBwgJCgv/xAC1EQACAQIEBAMEBwUEBAABAncAAQIDEQQFITEGEkFRB2FxEyIygQgUQpGhscEJIzNS8BVictEKFiQ04SXxFxgZGiYnKCkqNTY3ODk6Q0RFRkdISUpTVFVWV1hZWmNkZWZnaGlqc3R1dnd4eXqCg4SFhoeIiYqSk5SVlpeYmZqio6Slpqeoqaqys7S1tre4ubrCw8TFxsfIycrS09TV1tfY2dri4+Tl5ufo6ery8/T19vf4+fr/2gAMAwEAAhEDEQA/APf6KKKACiiigAorKt9Wh1LUL/S/KkjeAbWLY+YHjIx/nmuc8La4mnadFaXgmeWa9aFCACEzt+8c+pPr3rnliYKSXR319Drjg6koyfVW08nrc7iiikVlddysGHqDmug5BaKKKACiiigAooooAKKKKACszxEbhfD969tK0UyR7w6HBGCCf0BrTqK6hFxaTQHpJGyfmMVFROUGkXSkozjJ9GcP4YuGbxNBcSMzvd2WCzHJJXAJ/OM1n6lGbWfVFUfNb3yTp7Alv8Vp+hyGG90aY8FZntz+OP8A44av+IYMa5qSY/4+LMSD6rg/+yGvB5uahfqn+cf8z6NtRxNujX5S/wAjU8S31yl1pttFIPseoZhlUgchsDr1HDfpT/A0pfw6Ij1hmdMHt/F/Ws7W3M3hHSL5eXgaMk/QYP6gVd8KERahrFqPurPvT6HP9MV2wqN4pO+jX5q/6HDUglgnFLVP8nb8mdRRRRXqHjhRRRQAUUUUAFFFFABRRRQB5tcobSa9AHNrfh1+h3f4LXQeIYg2u6bKPu3CPBn2Ix/7PWfrkG3WdUTHEsCyL9QVz/Jqvau5k8P6TfDlomQn8uf1FfOr3Y1YdrP7pP8AQ96UuZ0597r74r9StAv2r4fTxH70DH8MMG/kaf4ck26+D2ubJD9WAUH+TVa0eENDrmnjpvbaPZgQP5CsrRn2XujTf9dID+ZP/s4qlLllRk/Jfc7fqS/ejViut396v+h3lFFFfQHhhRRRQAUUUUAFFFFABRRRQBy/iCH/AInlq2P9fC8P4kEf+zCo4x9p8DMvVoSf0bP8jV/xKPLWxuv+eM4/x/pUGkRZsNWsP7ruAPqCP6V4FSP+11Kf8yf4pP8ARnqwn+4hLs1+Df8AmM0KTGtv6T2qP+IAB/XNZJX7KZMcfZL8EewOf/iBV3Sn2Xuly+qvCfzJH/oQpNUh23+qR4+8iyr+a5/ma5JTcsMp9m/xjzfmbRdqzXdL8Hb8jsaKgspPOsbeT+9GpP5VPX1EZKUVJdTxWrOwUUUVQgooooAKKKKACiiigDO1y2e70uSONC8gZSqjvzVfSrO7t7+aWaMLHLGpJyPv4Gf1LVqXBdbaVozhwhKnHfHFc7pep3c+pxLPMzI2RjAA6H0rx8ZOhSxdOU78zta1rdVr952UeeVGUVay/r9CxbaBLCIN86fuZvNBA69P/iRVu/s7E3f2m6uPLLRmPbuA3Dkf1/SsjVLO6l1OYRxyyJkEYBIGRWnqthPqENqUUeYo+bccYyBXLBxUKsKVG7i1a93ezt+CNZNuUZSnv+HUtQT2lrpnmQuz28XGeSetUpPEtuP9XBK3+9gf41PZ6ZJFpU1pM6fvCcFecZFUho2nw/6++5HowX/Gta9XHqnD2SUVbW9lZ/MzhGhzS57vUjk8Szn/AFdvGv8AvEn/AAqrJrmoSdJQg/2VFaGzQofWQ/8AAj/9al/tPTof9TZZPrsArzqk67/jYpL0d/ysbr2a+Cn9/wDwR/h+6muPtCzyM7Aggsc+tbdZdhq32y68nyRGu0kfNmtSvfyycJYdKE+e19bW/M4cQn7RtqwUUUV3mIUUUUAHUYNYo1eGG48mOzVMPtJBAxzj0rarOfR7eSd5nZyzNuwDgV5+Phipcrw1r31vbY2pOmr85Fq2oXFnMiRBNrLnJGTnNJLczzaELhZCsoPzFeO+K0pbaGdlaWNXK9M09I0jXaiKq+ijArOWDxM6tRyqe5JNJdvMaqQUY2WqMbRGmeScTGRgyjlyT/nrVEaPeMxAiOAepIFdTRWMslp1KMKVWbfLfX1+8pYqSk5RW5zqaBcH78ka/iTVlPD8Y+/Ox/3VxWzRV08jwUN439WxPFVX1KVtpdvayiRN5cdCzVdoor0qNCnRjy042XkYylKTvJhRRRWpIUUUUAFFFFABRRRQAUUUUAFFFFABRRRQB//Z" vertex="1" parent="1">
          <mxGeometry x="310" y="240" width="52" height="50.61" as="geometry" />
        </mxCell>
        <mxCell id="z5qM3DSmOJjKIzn43adz-33" style="edgeStyle=orthogonalEdgeStyle;rounded=0;orthogonalLoop=1;jettySize=auto;html=1;strokeColor=#FF8000;entryX=1;entryY=0.5;entryDx=0;entryDy=0;" edge="1" parent="1" source="z5qM3DSmOJjKIzn43adz-32" target="z5qM3DSmOJjKIzn43adz-28">
          <mxGeometry relative="1" as="geometry">
            <mxPoint x="529.9999999999998" y="80" as="targetPoint" />
          </mxGeometry>
        </mxCell>
        <mxCell id="z5qM3DSmOJjKIzn43adz-32" value="" style="shape=umlActor;verticalLabelPosition=bottom;verticalAlign=top;html=1;outlineConnect=0;" vertex="1" parent="1">
          <mxGeometry x="760" y="137.35" width="20" height="40" as="geometry" />
        </mxCell>
        <mxCell id="z5qM3DSmOJjKIzn43adz-41" style="edgeStyle=orthogonalEdgeStyle;rounded=0;orthogonalLoop=1;jettySize=auto;html=1;strokeColor=#007FFF;" edge="1" parent="1" source="z5qM3DSmOJjKIzn43adz-39">
          <mxGeometry relative="1" as="geometry">
            <mxPoint x="160" y="220" as="targetPoint" />
          </mxGeometry>
        </mxCell>
        <mxCell id="z5qM3DSmOJjKIzn43adz-39" value="promtail&lt;div&gt;&lt;font style=&quot;font-size: 10px;&quot;&gt;采集pod日志&lt;/font&gt;&lt;/div&gt;" style="ellipse;whiteSpace=wrap;html=1;" vertex="1" parent="1">
          <mxGeometry x="125" y="128.59" width="70" height="57.5" as="geometry" />
        </mxCell>
      </root>
    </mxGraphModel>
  </diagram>
</mxfile>
